<?xml version="1.0" encoding="UTF-8" standalone="no"?>
<!-- Created with Inkscape (http://www.inkscape.org/) -->

<svg
   xmlns:dc="http://purl.org/dc/elements/1.1/"
   xmlns:cc="http://creativecommons.org/ns#"
   xmlns:rdf="http://www.w3.org/1999/02/22-rdf-syntax-ns#"
   xmlns:svg="http://www.w3.org/2000/svg"
   xmlns="http://www.w3.org/2000/svg"
   xmlns:sodipodi="http://sodipodi.sourceforge.net/DTD/sodipodi-0.dtd"
   xmlns:inkscape="http://www.inkscape.org/namespaces/inkscape"
   width="15.679425mm"
   height="13.22912mm"
   viewBox="0 0 15.679425 13.22912"
   version="1.1"
   id="svg8"
   sodipodi:docname="logo-blue.svg"
   inkscape:version="0.92.2 (5c3e80d, 2017-08-06)">
  <defs
     id="defs2" />
  <sodipodi:namedview
     id="base"
     pagecolor="#ffffff"
     bordercolor="#666666"
     borderopacity="1.0"
     inkscape:pageopacity="0.0"
     inkscape:pageshadow="2"
     inkscape:zoom="5.6"
     inkscape:cx="78.7396"
     inkscape:cy="6.2860825"
     inkscape:document-units="mm"
     inkscape:current-layer="layer1"
     showgrid="false"
     inkscape:window-width="1920"
     inkscape:window-height="1017"
     inkscape:window-x="1912"
     inkscape:window-y="-8"
     inkscape:window-maximized="1" />
  <metadata
     id="metadata5">
    <rdf:RDF>
      <cc:Work
         rdf:about="">
        <dc:format>image/svg+xml</dc:format>
        <dc:type
           rdf:resource="http://purl.org/dc/dcmitype/StillImage" />
        <dc:title></dc:title>
      </cc:Work>
    </rdf:RDF>
  </metadata>
  <g
     inkscape:label="Layer 1"
     inkscape:groupmode="layer"
     id="layer1"
     transform="translate(0,-283.77084)">
    <path
       inkscape:connector-curvature="0"
       id="path23"
       d="m 14.916225,296.99899 c -0.0072,-0.004 -0.385241,-0.65642 -0.840121,-1.44856 -0.454875,-0.79215 -0.837545,-1.4496 -0.850375,-1.46101 -0.0219,-0.0195 -0.104048,-0.0207 -1.365985,-0.0207 -1.211192,0 -1.344194,0.002 -1.358268,0.0188 -0.0086,0.0104 -0.232441,0.40107 -0.49747,0.8683 -0.2687652,0.47381 -0.4890257,0.84952 -0.4980423,0.84952 -0.00924,0 -0.921286,-1.63198 -2.1266762,-3.80536 -1.1607837,-2.09295 -2.1148314,-3.81193 -2.1201069,-3.81995 -0.0075,-0.0114 -0.3342102,-0.0146 -1.5067433,-0.0146 H 2.2552816 l -0.7395893,1.26347 c -0.4067735,0.69491 -0.74617467,1.26622 -0.75422793,1.26958 -0.0143368,0.006 -0.76081448661,-0.4218 -0.76146412263652,-0.4364 C -0.00111982,290.24078 3.8018713,283.77332 3.8168073,283.77084 c 0.012265,-0.002 0.8841616,1.56033 2.8507413,5.10811 1.5582103,2.81107 2.8386112,5.1128 2.8453315,5.11496 0.00672,0.002 0.5287879,-0.90697 1.1601449,-2.02027 0.631352,-1.11331 1.155245,-2.03197 1.1642,-2.04148 0.01019,-0.0108 0.02016,-0.0131 0.02671,-0.006 0.01462,0.0159 3.812053,6.62153 3.815475,6.63697 0.0017,0.007 -0.139824,0.0941 -0.314134,0.19369 -0.174309,0.0996 -0.343708,0.19668 -0.376447,0.21575 -0.03276,0.0191 -0.0654,0.031 -0.07259,0.0264 z m -2.221132,-3.83418 c -3.75e-4,-0.0258 -0.824372,-1.44916 -0.838911,-1.44916 -0.01305,0 -0.832285,1.43059 -0.832285,1.45336 0,0.006 0.351929,0.0106 0.835707,0.0106 0.660776,0 0.835663,-0.003 0.835489,-0.0148 z m -7.9586125,-5.90495 c 0.00594,-0.0155 -0.8923828,-1.65302 -0.9271328,-1.69 -0.010137,-0.0108 -0.020105,-0.0131 -0.026546,-0.006 -0.035226,0.0387 -0.9859025,1.68261 -0.9807838,1.69595 0.00946,0.0246 1.9250143,0.0246 1.9344677,-3e-5 z m 3.0047612,1.00047 c -0.9732066,-1.74102 -1.7719857,-3.17512 -1.7750603,-3.18689 -0.00336,-0.0118 0.00168,-0.0271 0.010025,-0.034 0.04385,-0.0355 0.7257733,-0.4073 0.7412974,-0.4042 0.010193,0.002 0.6265637,1.09172 1.4101323,2.49296 0.765614,1.36914 1.3976155,2.49933 1.4044479,2.51153 0.012153,0.0217 0.012881,0.0217 0.033154,0 0.011425,-0.0122 0.3454389,-0.56024 0.742295,-1.21785 0.396855,-0.65762 0.728058,-1.19816 0.736005,-1.20121 0.01579,-0.006 0.750846,0.43322 0.750846,0.44872 0,0.0168 -2.2588445,3.74821 -2.2715236,3.75243 -0.00666,0.002 -0.8084284,-1.42041 -1.781635,-3.16144 z"
       style="fill:#254571;stroke-width:0.01185401;fill-opacity:1" />
  </g>
</svg>
